<svg width="137" height="35" viewBox="0 0 137 35" fill="none" xmlns="http://www.w3.org/2000/svg">
<path d="M0.598758 15.1657C1.67619 10.8352 4.17149 6.98956 7.68733 4.24131C11.2032 1.49301 15.5375 0 20 0C24.4625 0 28.7968 1.49301 32.3127 4.24131C35.8286 6.98956 38.3238 10.8352 39.4012 15.1657H37.6488C34.6925 15.1222 31.7969 16.0057 29.3684 17.6921C29.2282 17.7936 29.0819 17.8864 28.9303 17.9696H28.7258C28.5742 17.8864 28.4279 17.7936 28.2877 17.6921C25.8378 16.0447 22.9523 15.1648 20 15.1648C17.0477 15.1648 14.1622 16.0447 11.7123 17.6921C11.5721 17.7936 11.4258 17.8864 11.2742 17.9696H11.0697C10.9181 17.8864 10.7718 17.7936 10.6316 17.6921C8.20314 16.0057 5.30748 15.1222 2.35122 15.1657H0.598758ZM34.4943 24.3223C35.3939 23.6218 36.5089 23.2552 37.6488 23.2854H40V18.5976H37.6488C35.641 18.5733 33.6793 19.1982 32.0555 20.3793C31.1417 21.0529 30.0364 21.4164 28.9011 21.4164C27.7658 21.4164 26.6604 21.0529 25.7466 20.3793C24.0816 19.2203 22.1016 18.5989 20.073 18.5989C18.0444 18.5989 16.0644 19.2203 14.3994 20.3793C13.4857 21.0529 12.3803 21.4164 11.245 21.4164C10.1097 21.4164 9.00431 21.0529 8.09054 20.3793C6.44673 19.1831 4.45681 18.5574 2.42424 18.5976H0V23.2854H2.35122C3.49107 23.2552 4.60606 23.6218 5.50566 24.3223C7.16758 25.4821 9.14538 26.104 11.172 26.104C13.1985 26.104 15.1763 25.4821 16.8383 24.3223C17.739 23.6239 18.8532 23.2577 19.9927 23.2854C21.133 23.2527 22.2487 23.6196 23.1471 24.3223C24.8121 25.4814 26.7921 26.1027 28.8207 26.1027C30.8494 26.1027 32.8294 25.4814 34.4943 24.3223ZM34.4943 32.7049C35.3939 32.0044 36.5089 31.6378 37.6488 31.6681H40V26.9802H37.6488C35.641 26.956 33.6793 27.5809 32.0555 28.7619C31.1417 29.4356 30.0364 29.799 28.9011 29.799C27.7658 29.799 26.6604 29.4356 25.7466 28.7619C24.0816 27.6029 22.1016 26.9817 20.073 26.9817C18.0444 26.9817 16.0644 27.6029 14.3994 28.7619C13.4857 29.4356 12.3803 29.799 11.245 29.799C10.1097 29.799 9.00431 29.4356 8.09054 28.7619C6.44673 27.5658 4.45681 26.9401 2.42424 26.9802H0V31.6681H2.35122C3.49107 31.6378 4.60606 32.0044 5.50566 32.7049C7.16758 33.8648 9.14538 34.4866 11.172 34.4866C13.1985 34.4866 15.1763 33.8648 16.8383 32.7049C17.739 32.0066 18.8532 31.6403 19.9927 31.6681C21.133 31.6353 22.2487 32.0022 23.1471 32.7049C24.8121 33.864 26.7921 34.4853 28.8207 34.4853C30.8494 34.4853 32.8294 33.864 34.4943 32.7049Z" fill="white"/>
<path d="M53.584 26.2434V9.85341H56.444L62.582 18.1914H61.218L67.224 9.85341H70.084V26.2434H67.07V13.2634L68.236 13.5494L62.01 21.8434H61.658L55.586 13.5494L56.576 13.2634V26.2434H53.584ZM78.8307 26.5074C77.6574 26.5074 76.5867 26.2361 75.6187 25.6934C74.6654 25.1507 73.9027 24.4101 73.3307 23.4714C72.7734 22.5327 72.4947 21.4621 72.4947 20.2594C72.4947 19.0567 72.7734 17.9861 73.3307 17.0474C73.9027 16.1087 74.6654 15.3681 75.6187 14.8254C76.5721 14.2827 77.6427 14.0114 78.8307 14.0114C80.0041 14.0114 81.0674 14.2827 82.0207 14.8254C82.9741 15.3681 83.7294 16.1087 84.2867 17.0474C84.8587 17.9714 85.1447 19.0421 85.1447 20.2594C85.1447 21.4621 84.8587 22.5327 84.2867 23.4714C83.7147 24.4101 82.9521 25.1507 81.9987 25.6934C81.0454 26.2361 79.9894 26.5074 78.8307 26.5074ZM78.8307 23.8674C79.4761 23.8674 80.0407 23.7134 80.5247 23.4054C81.0234 23.0974 81.4121 22.6721 81.6907 22.1294C81.9841 21.5721 82.1307 20.9487 82.1307 20.2594C82.1307 19.5554 81.9841 18.9394 81.6907 18.4114C81.4121 17.8687 81.0234 17.4434 80.5247 17.1354C80.0407 16.8127 79.4761 16.6514 78.8307 16.6514C78.1707 16.6514 77.5914 16.8127 77.0927 17.1354C76.5941 17.4434 76.1981 17.8687 75.9047 18.4114C75.6261 18.9394 75.4867 19.5554 75.4867 20.2594C75.4867 20.9487 75.6261 21.5721 75.9047 22.1294C76.1981 22.6721 76.5941 23.0974 77.0927 23.4054C77.5914 23.7134 78.1707 23.8674 78.8307 23.8674ZM90.7234 26.2434L86.0154 14.2754H89.1614L92.5714 23.6914H91.4054L94.8374 14.2754H97.9834L93.2754 26.2434H90.7234ZM105.038 26.5074C103.806 26.5074 102.728 26.2287 101.804 25.6714C100.88 25.1141 100.161 24.3587 99.6475 23.4054C99.1342 22.4521 98.8775 21.3961 98.8775 20.2374C98.8775 19.0347 99.1342 17.9714 99.6475 17.0474C100.176 16.1087 100.887 15.3681 101.782 14.8254C102.691 14.2827 103.703 14.0114 104.818 14.0114C105.756 14.0114 106.578 14.1654 107.282 14.4734C108 14.7814 108.609 15.2067 109.108 15.7494C109.606 16.2921 109.988 16.9154 110.252 17.6194C110.516 18.3087 110.648 19.0567 110.648 19.8634C110.648 20.0687 110.633 20.2814 110.604 20.5014C110.589 20.7214 110.552 20.9121 110.494 21.0734H101.254V18.8734H108.866L107.502 19.9074C107.634 19.2327 107.597 18.6314 107.392 18.1034C107.201 17.5754 106.878 17.1574 106.424 16.8494C105.984 16.5414 105.448 16.3874 104.818 16.3874C104.216 16.3874 103.681 16.5414 103.212 16.8494C102.742 17.1427 102.383 17.5827 102.134 18.1694C101.899 18.7414 101.811 19.4381 101.87 20.2594C101.811 20.9927 101.906 21.6454 102.156 22.2174C102.42 22.7747 102.801 23.2074 103.3 23.5154C103.813 23.8234 104.4 23.9774 105.06 23.9774C105.72 23.9774 106.277 23.8381 106.732 23.5594C107.201 23.2807 107.568 22.9067 107.832 22.4374L110.164 23.5814C109.929 24.1534 109.562 24.6594 109.064 25.0994C108.565 25.5394 107.971 25.8841 107.282 26.1334C106.607 26.3827 105.859 26.5074 105.038 26.5074ZM118.508 26.5074C117.276 26.5074 116.198 26.2287 115.274 25.6714C114.35 25.1141 113.632 24.3587 113.118 23.4054C112.605 22.4521 112.348 21.3961 112.348 20.2374C112.348 19.0347 112.605 17.9714 113.118 17.0474C113.646 16.1087 114.358 15.3681 115.252 14.8254C116.162 14.2827 117.174 14.0114 118.288 14.0114C119.227 14.0114 120.048 14.1654 120.752 14.4734C121.471 14.7814 122.08 15.2067 122.578 15.7494C123.077 16.2921 123.458 16.9154 123.722 17.6194C123.986 18.3087 124.118 19.0567 124.118 19.8634C124.118 20.0687 124.104 20.2814 124.074 20.5014C124.06 20.7214 124.023 20.9121 123.964 21.0734H114.724V18.8734H122.336L120.972 19.9074C121.104 19.2327 121.068 18.6314 120.862 18.1034C120.672 17.5754 120.349 17.1574 119.894 16.8494C119.454 16.5414 118.919 16.3874 118.288 16.3874C117.687 16.3874 117.152 16.5414 116.682 16.8494C116.213 17.1427 115.854 17.5827 115.604 18.1694C115.37 18.7414 115.282 19.4381 115.34 20.2594C115.282 20.9927 115.377 21.6454 115.626 22.2174C115.89 22.7747 116.272 23.2074 116.77 23.5154C117.284 23.8234 117.87 23.9774 118.53 23.9774C119.19 23.9774 119.748 23.8381 120.202 23.5594C120.672 23.2807 121.038 22.9067 121.302 22.4374L123.634 23.5814C123.4 24.1534 123.033 24.6594 122.534 25.0994C122.036 25.5394 121.442 25.8841 120.752 26.1334C120.078 26.3827 119.33 26.5074 118.508 26.5074ZM130.857 26.5074C129.581 26.5074 128.466 26.2067 127.513 25.6054C126.574 24.9894 125.929 24.1607 125.577 23.1194L127.733 22.0854C128.041 22.7601 128.466 23.2881 129.009 23.6694C129.566 24.0507 130.182 24.2414 130.857 24.2414C131.385 24.2414 131.803 24.1241 132.111 23.8894C132.419 23.6547 132.573 23.3467 132.573 22.9654C132.573 22.7307 132.507 22.5401 132.375 22.3934C132.258 22.2321 132.089 22.1001 131.869 21.9974C131.664 21.8801 131.436 21.7847 131.187 21.7114L129.229 21.1614C128.217 20.8681 127.447 20.4207 126.919 19.8194C126.406 19.2181 126.149 18.5067 126.149 17.6854C126.149 16.9521 126.332 16.3141 126.699 15.7714C127.08 15.2141 127.601 14.7814 128.261 14.4734C128.936 14.1654 129.706 14.0114 130.571 14.0114C131.7 14.0114 132.698 14.2827 133.563 14.8254C134.428 15.3681 135.044 16.1307 135.411 17.1134L133.211 18.1474C133.006 17.6047 132.661 17.1721 132.177 16.8494C131.693 16.5267 131.15 16.3654 130.549 16.3654C130.065 16.3654 129.684 16.4754 129.405 16.6954C129.126 16.9154 128.987 17.2014 128.987 17.5534C128.987 17.7734 129.046 17.9641 129.163 18.1254C129.28 18.2867 129.442 18.4187 129.647 18.5214C129.867 18.6241 130.116 18.7194 130.395 18.8074L132.309 19.3794C133.292 19.6727 134.047 20.1127 134.575 20.6994C135.118 21.2861 135.389 22.0047 135.389 22.8554C135.389 23.5741 135.198 24.2121 134.817 24.7694C134.436 25.3121 133.908 25.7374 133.233 26.0454C132.558 26.3534 131.766 26.5074 130.857 26.5074Z" fill="white"/>
</svg>
